<mxfile host="Electron" modified="2024-06-25T12:54:41.820Z" agent="Mozilla/5.0 (X11; Linux x86_64) AppleWebKit/537.36 (KHTML, like Gecko) draw.io/24.2.5 Chrome/120.0.6099.109 Electron/28.1.0 Safari/537.36" etag="JwyhEtKh25zTkw9WeMkN" version="24.2.5" type="device">
  <diagram name="Page-1" id="tK4ZlZJ-obr3YAVWWc7f">
    <mxGraphModel dx="1434" dy="835" grid="1" gridSize="10" guides="1" tooltips="1" connect="1" arrows="1" fold="1" page="1" pageScale="1" pageWidth="850" pageHeight="1100" math="0" shadow="0">
      <root>
        <mxCell id="0" />
        <mxCell id="1" parent="0" />
        <mxCell id="ohNlAgRLq_NmiL2LjdC4-11" style="edgeStyle=orthogonalEdgeStyle;rounded=1;orthogonalLoop=1;jettySize=auto;html=1;entryX=0.5;entryY=0;entryDx=0;entryDy=0;shadow=0;strokeColor=#6c8ebf;strokeWidth=1;fontFamily=Ubuntu;fontSize=14;fontStyle=0;endArrow=block;endFill=1;fillColor=#dae8fc;" edge="1" parent="1" source="ohNlAgRLq_NmiL2LjdC4-1" target="ohNlAgRLq_NmiL2LjdC4-10">
          <mxGeometry relative="1" as="geometry">
            <Array as="points">
              <mxPoint x="300" y="380" />
              <mxPoint x="460" y="380" />
            </Array>
          </mxGeometry>
        </mxCell>
        <mxCell id="ohNlAgRLq_NmiL2LjdC4-1" value="1" style="rounded=0;whiteSpace=wrap;html=1;shadow=0;strokeColor=#264653;strokeWidth=1;fontFamily=Ubuntu;fontSize=16;fontStyle=0;fillColor=#2a9d8f;" vertex="1" parent="1">
          <mxGeometry x="280" y="320" width="40" height="40" as="geometry" />
        </mxCell>
        <mxCell id="ohNlAgRLq_NmiL2LjdC4-13" style="edgeStyle=orthogonalEdgeStyle;rounded=1;orthogonalLoop=1;jettySize=auto;html=1;shadow=0;strokeColor=#6c8ebf;strokeWidth=1;fontFamily=Ubuntu;fontSize=14;fontStyle=0;endArrow=block;endFill=1;fillColor=#dae8fc;exitX=0.5;exitY=1;exitDx=0;exitDy=0;" edge="1" parent="1" source="ohNlAgRLq_NmiL2LjdC4-2" target="ohNlAgRLq_NmiL2LjdC4-9">
          <mxGeometry relative="1" as="geometry">
            <Array as="points">
              <mxPoint x="340" y="390" />
              <mxPoint x="420" y="390" />
            </Array>
          </mxGeometry>
        </mxCell>
        <mxCell id="ohNlAgRLq_NmiL2LjdC4-2" value="2" style="rounded=0;whiteSpace=wrap;html=1;shadow=0;strokeColor=#264653;strokeWidth=1;fontFamily=Ubuntu;fontSize=16;fontStyle=0;fillColor=#e9c46a;" vertex="1" parent="1">
          <mxGeometry x="320" y="320" width="40" height="40" as="geometry" />
        </mxCell>
        <mxCell id="ohNlAgRLq_NmiL2LjdC4-15" style="edgeStyle=orthogonalEdgeStyle;rounded=1;orthogonalLoop=1;jettySize=auto;html=1;shadow=0;strokeColor=#6c8ebf;strokeWidth=1;fontFamily=Ubuntu;fontSize=14;fontStyle=0;endArrow=block;endFill=1;fillColor=#dae8fc;" edge="1" parent="1" source="ohNlAgRLq_NmiL2LjdC4-3" target="ohNlAgRLq_NmiL2LjdC4-8">
          <mxGeometry relative="1" as="geometry" />
        </mxCell>
        <mxCell id="ohNlAgRLq_NmiL2LjdC4-3" value="3" style="rounded=0;whiteSpace=wrap;html=1;shadow=0;strokeColor=#264653;strokeWidth=1;fontFamily=Ubuntu;fontSize=16;fontStyle=0;fillColor=#f4a261;" vertex="1" parent="1">
          <mxGeometry x="360" y="320" width="40" height="40" as="geometry" />
        </mxCell>
        <mxCell id="ohNlAgRLq_NmiL2LjdC4-14" style="edgeStyle=orthogonalEdgeStyle;rounded=1;orthogonalLoop=1;jettySize=auto;html=1;shadow=0;strokeColor=#6c8ebf;strokeWidth=1;fontFamily=Ubuntu;fontSize=14;fontStyle=0;endArrow=block;endFill=1;fillColor=#dae8fc;exitX=0.25;exitY=1;exitDx=0;exitDy=0;" edge="1" parent="1" source="ohNlAgRLq_NmiL2LjdC4-4" target="ohNlAgRLq_NmiL2LjdC4-7">
          <mxGeometry relative="1" as="geometry">
            <Array as="points">
              <mxPoint x="410" y="410" />
              <mxPoint x="340" y="410" />
            </Array>
          </mxGeometry>
        </mxCell>
        <mxCell id="ohNlAgRLq_NmiL2LjdC4-4" value="4" style="rounded=0;whiteSpace=wrap;html=1;shadow=0;strokeColor=#264653;strokeWidth=1;fontFamily=Ubuntu;fontSize=16;fontStyle=0;fillColor=#e76f51;" vertex="1" parent="1">
          <mxGeometry x="400" y="320" width="40" height="40" as="geometry" />
        </mxCell>
        <mxCell id="ohNlAgRLq_NmiL2LjdC4-12" style="edgeStyle=orthogonalEdgeStyle;rounded=1;orthogonalLoop=1;jettySize=auto;html=1;entryX=0.5;entryY=0;entryDx=0;entryDy=0;shadow=0;strokeColor=#6c8ebf;strokeWidth=1;fontFamily=Ubuntu;fontSize=14;fontStyle=0;endArrow=block;endFill=1;fillColor=#dae8fc;exitX=0.25;exitY=1;exitDx=0;exitDy=0;" edge="1" parent="1" source="ohNlAgRLq_NmiL2LjdC4-5" target="ohNlAgRLq_NmiL2LjdC4-6">
          <mxGeometry relative="1" as="geometry">
            <mxPoint x="460" y="360" as="sourcePoint" />
            <Array as="points">
              <mxPoint x="450" y="420" />
              <mxPoint x="300" y="420" />
            </Array>
          </mxGeometry>
        </mxCell>
        <mxCell id="ohNlAgRLq_NmiL2LjdC4-5" value="5" style="rounded=0;whiteSpace=wrap;html=1;shadow=0;strokeColor=#264653;strokeWidth=1;fontFamily=Ubuntu;fontSize=16;fontStyle=0;fillColor=#FFAEBC;" vertex="1" parent="1">
          <mxGeometry x="440" y="320" width="40" height="40" as="geometry" />
        </mxCell>
        <mxCell id="ohNlAgRLq_NmiL2LjdC4-6" value="5" style="rounded=0;whiteSpace=wrap;html=1;shadow=0;strokeColor=#264653;strokeWidth=1;fontFamily=Ubuntu;fontSize=16;fontStyle=0;fillColor=#FFAEBC;" vertex="1" parent="1">
          <mxGeometry x="280" y="440" width="40" height="40" as="geometry" />
        </mxCell>
        <mxCell id="ohNlAgRLq_NmiL2LjdC4-7" value="4" style="rounded=0;whiteSpace=wrap;html=1;shadow=0;strokeColor=#264653;strokeWidth=1;fontFamily=Ubuntu;fontSize=16;fontStyle=0;fillColor=#e76f51;" vertex="1" parent="1">
          <mxGeometry x="320" y="440" width="40" height="40" as="geometry" />
        </mxCell>
        <mxCell id="ohNlAgRLq_NmiL2LjdC4-8" value="3" style="rounded=0;whiteSpace=wrap;html=1;shadow=0;strokeColor=#264653;strokeWidth=1;fontFamily=Ubuntu;fontSize=16;fontStyle=0;fillColor=#f4a261;" vertex="1" parent="1">
          <mxGeometry x="360" y="440" width="40" height="40" as="geometry" />
        </mxCell>
        <mxCell id="ohNlAgRLq_NmiL2LjdC4-9" value="2" style="rounded=0;whiteSpace=wrap;html=1;shadow=0;strokeColor=#264653;strokeWidth=1;fontFamily=Ubuntu;fontSize=16;fontStyle=0;fillColor=#e9c46a;" vertex="1" parent="1">
          <mxGeometry x="400" y="440" width="40" height="40" as="geometry" />
        </mxCell>
        <mxCell id="ohNlAgRLq_NmiL2LjdC4-10" value="1" style="rounded=0;whiteSpace=wrap;html=1;shadow=0;strokeColor=#264653;strokeWidth=1;fontFamily=Ubuntu;fontSize=16;fontStyle=0;fillColor=#2a9d8f;" vertex="1" parent="1">
          <mxGeometry x="440" y="440" width="40" height="40" as="geometry" />
        </mxCell>
      </root>
    </mxGraphModel>
  </diagram>
</mxfile>
